<?xml version="1.0" standalone="no"?>
<!DOCTYPE svg PUBLIC "-//W3C//DTD SVG 20010904//EN"
 "http://www.w3.org/TR/2001/REC-SVG-20010904/DTD/svg10.dtd">
<svg version="1.0" xmlns="http://www.w3.org/2000/svg"
 width="1600.000000pt" height="1600.000000pt" viewBox="0 0 1600.000000 1600.000000"
 preserveAspectRatio="xMidYMid meet">
<metadata>
Created by potrace 1.15, written by Peter Selinger 2001-2017
</metadata>
<g transform="translate(0.000000,1600.000000) scale(0.100000,-0.100000)"
fill="#000000" stroke="none">
<path d="M7180 15553 c-89 -9 -192 -38 -266 -73 -134 -65 -223 -177 -299 -381
-49 -131 -4002 -12496 -4021 -12577 -18 -77 -20 -201 -5 -258 26 -98 102 -168
225 -207 70 -22 78 -22 696 -22 569 0 632 2 703 18 182 43 331 159 407 318 28
59 162 489 456 1464 228 759 424 1399 434 1423 25 55 111 146 164 172 48 23
106 26 157 8 33 -11 368 -206 4094 -2383 968 -566 1792 -1043 1831 -1061 168
-78 388 -118 534 -96 156 22 206 53 551 338 277 229 328 284 375 409 35 94 44
246 20 362 -15 76 -3808 11973 -3861 12113 -90 236 -211 351 -430 412 -79 22
-85 22 -905 24 -454 1 -841 0 -860 -3z m886 -2322 c41 -19 67 -47 97 -107 9
-18 361 -1190 782 -2605 422 -1416 951 -3193 1177 -3949 455 -1527 437 -1452
381 -1551 -52 -92 -112 -119 -212 -93 -57 15 -87 32 -2944 1704 -1077 631
-1074 629 -1131 746 -35 72 -43 156 -23 260 20 107 1611 5425 1642 5490 53
109 137 148 231 105z"/>
</g>
</svg>
