<?xml version="1.0" standalone="no"?>
<!DOCTYPE svg PUBLIC "-//W3C//DTD SVG 20010904//EN"
 "http://www.w3.org/TR/2001/REC-SVG-20010904/DTD/svg10.dtd">
<svg version="1.0" xmlns="http://www.w3.org/2000/svg"
 width="1600.000000pt" height="1600.000000pt" viewBox="0 0 1600.000000 1600.000000"
 preserveAspectRatio="xMidYMid meet">
<metadata>
Created by potrace 1.15, written by Peter Selinger 2001-2017
</metadata>
<g transform="translate(0.000000,1600.000000) scale(0.100000,-0.100000)"
fill="#000000" stroke="none">
<path d="M7685 12823 c-92 -21 -143 -59 -179 -132 -37 -73 -1639 -5090 -1644
-5147 -5 -62 15 -106 61 -131 28 -16 63 -18 317 -18 280 0 286 0 333 24 26 13
61 40 78 60 34 41 30 29 239 722 80 268 154 499 164 513 9 15 33 34 51 43 33
16 37 16 70 0 20 -10 560 -323 1201 -698 641 -374 1191 -689 1222 -700 71 -25
173 -27 225 -6 43 18 226 165 274 220 41 47 56 96 51 170 -3 47 -199 670 -777
2482 -426 1331 -784 2440 -796 2465 -28 55 -67 93 -120 117 -36 16 -77 18
-395 20 -195 1 -364 -1 -375 -4z m403 -946 c15 -16 153 -466 496 -1620 262
-878 476 -1610 476 -1626 0 -16 -11 -39 -26 -56 -21 -22 -31 -26 -58 -22 -39
6 -1583 907 -1622 946 -32 32 -44 61 -44 110 0 58 657 2241 682 2269 27 28 69
28 96 -1z"/>
<path d="M5412 6568 c-17 -17 -17 -979 0 -996 18 -18 94 -15 112 4 14 14 16
72 16 494 0 422 -2 480 -16 494 -18 19 -94 22 -112 4z"/>
<path d="M6720 6571 c-69 -21 -128 -71 -151 -126 -7 -16 -15 -68 -18 -115 l-6
-85 -55 -3 c-62 -3 -80 -18 -80 -67 0 -49 18 -64 80 -67 l55 -3 3 -259 c1
-171 6 -264 13 -273 14 -16 91 -17 107 -1 9 9 12 84 12 275 l0 263 149 0 150
0 3 -212 c4 -250 11 -277 88 -315 52 -27 121 -30 144 -7 37 37 4 114 -48 114
-55 0 -56 8 -56 455 0 306 -3 414 -12 423 -7 7 -30 12 -53 12 -23 0 -46 -5
-53 -12 -8 -8 -12 -60 -12 -170 l0 -158 -150 0 -150 0 0 61 c0 105 35 149 120
149 43 0 60 18 60 65 0 50 -16 65 -68 64 -26 0 -58 -4 -72 -8z"/>
<path d="M5939 6243 c-15 -2 -51 -19 -80 -36 -60 -36 -112 -110 -123 -174 -11
-72 -7 -448 6 -461 16 -16 90 -16 106 0 9 9 12 70 12 212 0 111 5 217 10 237
5 19 23 48 40 64 40 38 128 47 176 17 58 -37 64 -66 64 -304 0 -153 3 -217 12
-226 16 -16 90 -16 106 0 9 9 12 76 12 242 0 221 -1 233 -24 282 -53 113 -173
169 -317 147z"/>
<path d="M8222 6231 c-65 -23 -107 -61 -138 -126 -22 -46 -24 -63 -24 -208 0
-168 6 -199 54 -262 13 -17 48 -44 77 -60 48 -26 64 -30 139 -30 75 0 91 4
138 30 55 30 102 76 102 100 0 19 -51 65 -72 65 -9 0 -30 -11 -46 -25 -16 -13
-41 -29 -56 -35 -37 -14 -106 -12 -136 3 -39 20 -70 74 -70 123 l0 44 184 0
c228 0 221 -4 213 121 -7 104 -32 165 -90 214 -73 63 -177 80 -275 46z m168
-126 c36 -19 60 -62 60 -110 l0 -35 -130 0 -130 0 0 29 c0 48 21 92 54 112 38
23 106 25 146 4z"/>
<path d="M8959 6243 c-15 -2 -51 -19 -80 -36 -60 -36 -112 -110 -123 -174 -11
-72 -7 -448 6 -461 16 -16 90 -16 106 0 9 9 12 70 12 212 0 111 5 217 10 237
5 19 23 48 40 64 40 38 128 47 176 17 58 -37 64 -66 64 -304 0 -153 3 -217 12
-226 16 -16 90 -16 106 0 9 9 12 76 12 242 0 221 -1 233 -24 282 -53 113 -173
169 -317 147z"/>
<path d="M9675 6241 c-72 -19 -139 -73 -172 -140 -15 -31 -18 -63 -18 -212 l0
-176 30 -48 c59 -96 168 -141 283 -117 64 13 129 54 152 94 14 26 13 29 -15
58 -16 16 -34 30 -42 30 -7 0 -34 -13 -60 -30 -54 -34 -106 -39 -158 -14 -53
25 -65 63 -65 203 0 173 24 220 119 229 41 4 57 0 100 -24 56 -32 68 -30 105
19 l20 27 -21 27 c-44 59 -173 97 -258 74z"/>
<path d="M10242 6231 c-65 -23 -107 -61 -138 -126 -22 -46 -24 -63 -24 -208 0
-168 6 -199 54 -262 13 -17 48 -44 77 -60 48 -26 64 -30 139 -30 75 0 91 4
138 30 55 30 102 76 102 100 0 19 -51 65 -72 65 -9 0 -30 -11 -46 -25 -16 -13
-41 -29 -56 -35 -37 -14 -106 -12 -136 3 -39 20 -70 74 -70 123 l0 44 184 0
c228 0 221 -4 213 121 -7 104 -32 165 -90 214 -73 63 -177 80 -275 46z m168
-126 c36 -19 60 -62 60 -110 l0 -35 -130 0 -130 0 0 29 c0 48 21 92 54 112 38
23 106 25 146 4z"/>
<path d="M7352 6228 c-19 -19 -16 -429 3 -495 21 -71 63 -123 126 -158 47 -26
64 -30 134 -29 90 0 138 19 195 76 68 67 74 97 78 354 4 261 3 264 -68 264
-69 0 -70 -4 -70 -254 0 -216 -1 -224 -23 -257 -31 -47 -62 -61 -125 -56 -62
4 -106 39 -122 96 -5 20 -10 128 -10 242 0 146 -3 208 -12 217 -7 7 -30 12
-53 12 -23 0 -46 -5 -53 -12z"/>
</g>
</svg>
